<?xml version="1.0" encoding="iso-8859-1"?>
<!-- Generator: Adobe Illustrator 16.0.0, SVG Export Plug-In . SVG Version: 6.00 Build 0)  -->
<!DOCTYPE svg PUBLIC "-//W3C//DTD SVG 1.1//EN" "http://www.w3.org/Graphics/SVG/1.1/DTD/svg11.dtd">
<svg version="1.1" id="Layer_1" xmlns="http://www.w3.org/2000/svg" xmlns:xlink="http://www.w3.org/1999/xlink" x="0px" y="0px"
	 width="1820px" height="372px" viewBox="0 0 1820 372" style="enable-background:new 0 0 1820 372;" xml:space="preserve">
<g>
	<g>
		<path style="fill:#652C10;" d="M880.164,97.644c-6.811,7.875-10.287,11.918-10.428,12.131c-1.49,1.774-4.187,5.144-8.088,10.109
			c-3.192,4.115-5.604,7.272-7.235,9.471c-5.393,7.449-9.88,13.976-13.461,19.58c-3.583,5.604-7.183,11.705-10.801,18.302
			l-0.852,1.703c7.944,0.213,13.158,0.569,15.643,1.064c1.772,0.498,2.66,1.208,2.66,2.128c0,0.639-0.249,1.313-0.745,2.022
			c-5.179-1.277-11.563-2.128-19.153-2.554l-1.064,2.022c-4.895,9.082-8.975,17.204-12.237,24.368
			c-2.979,6.669-5.179,12.45-6.598,17.345c-1.489,5.18-2.234,9.577-2.234,13.195c0,3.335,0.814,6.028,2.447,8.087
			c1.56,1.985,3.831,2.979,6.811,2.979c6.385,0,14.826-3.867,25.326-11.599c10.498-7.731,21.21-17.912,32.136-30.54l1.276-1.383
			l1.384,1.49c-4.399,5.605-10.642,12.237-18.729,19.898c-3.902,3.689-7.661,7.06-11.279,10.109
			c-3.618,3.051-7.166,5.815-10.641,8.3c-4.825,3.475-9.684,6.278-14.579,8.406c-4.753,2.057-8.726,3.086-11.918,3.086
			c-3.761,0-6.74-1.313-8.938-3.937c-2.271-2.626-3.404-6.065-3.404-10.322c0-12.2,6.667-29.723,20.005-52.567l4.256-7.342
			c0-0.07,0.017-0.123,0.054-0.16c0.035-0.035,0.142-0.194,0.319-0.479c0.176-0.283,0.372-0.639,0.585-1.064h-2.66
			c-4.328,0-9.258,0.319-14.791,0.958c-5.392,0.71-10.534,1.561-15.43,2.554l-0.532,0.639c-0.213,0.284-0.426,0.55-0.638,0.798
			c-0.213,0.25-0.392,0.479-0.532,0.692c-0.213,0.213-0.356,0.391-0.426,0.532c-0.071,0.143-0.213,0.319-0.426,0.532l-4.257,5.64
			c-0.071,0.143-0.212,0.319-0.425,0.532s-0.356,0.391-0.426,0.532c-0.284,0.285-0.569,0.639-0.852,1.064
			c-0.284,0.425-0.71,0.958-1.277,1.596l-5.959,7.449c-2.483,2.979-3.867,4.612-4.149,4.895l-7.662,8.62l-2.234,2.767
			c-2.979,3.476-6.102,6.847-9.364,10.108c-3.264,3.264-6.385,6.172-9.364,8.726c-5.889,5.036-11.386,8.974-16.493,11.812
			c-5.107,2.767-9.506,4.15-13.195,4.15c-2.979,0-5.249-0.888-6.81-2.66c-1.631-1.846-2.447-4.222-2.447-7.13
			c0-2.767,0.675-5.64,2.021-8.619c1.42-3.192,3.477-6.491,6.172-9.896c2.767-3.475,6.102-6.916,10.002-10.321
			c3.973-3.475,8.051-6.667,12.237-9.577c4.683-3.192,9.966-6.385,15.855-9.577c5.391-2.767,11.421-5.462,18.09-8.087
			c6.101-2.27,12.237-4.22,18.409-5.853l1.809-0.426c0.07-0.07,0.177-0.123,0.319-0.16c0.142-0.035,0.248-0.053,0.319-0.053
			c0.069,0,0.389-0.07,0.958-0.213c1.276-1.49,2.66-3.369,4.149-5.64c5.746-8.3,10.251-15.074,13.515-20.324
			c4.113-6.526,6.916-11.314,8.406-14.366c1.844-3.618,2.979-6.952,3.405-10.002c1.276-0.567,2.091-0.851,2.447-0.851
			c0.779,0,1.17,0.391,1.17,1.17c0,1.207-1.135,3.867-3.404,7.98l-2.979,5.321c-1.136,2.058-3.583,6.137-7.343,12.237
			c-4.682,7.236-9.684,14.508-15.004,21.814l-1.276,1.809c4.185-0.993,9.398-1.844,15.642-2.554
			c5.746-0.567,11.386-0.921,16.92-1.064c5.036-8.37,10.321-16.387,15.854-24.049c6.739-9.505,13.23-18.018,19.474-25.539
			l10.002-11.705c3.192-3.831,5.534-6.313,7.023-7.449C876.155,99.17,878.036,98.283,880.164,97.644z M784.501,176.068
			c-5.604,1.208-12.096,3.264-19.473,6.172c-8.018,3.264-15.147,6.634-21.389,10.109c-11.492,6.385-20.75,13.302-27.773,20.75
			c-7.093,7.52-10.641,14.295-10.641,20.324c0,2.198,0.745,4.078,2.234,5.64c1.49,1.56,3.335,2.341,5.533,2.341
			c3.549,0,7.625-1.313,12.237-3.937c4.61-2.484,9.753-6.313,15.43-11.493c2.411-2.27,4.31-4.097,5.693-5.479
			c1.383-1.384,3.192-3.263,5.427-5.64c2.234-2.376,5.018-5.443,8.353-9.204C769.639,194.727,777.761,184.866,784.501,176.068z"/>
		<path style="fill:#652C10;" d="M898.68,204.587c-0.071-0.07-0.178-0.142-0.319-0.213c-0.143-0.07-0.284-0.142-0.426-0.213
			c-0.425-0.213-0.744-0.319-0.957-0.319c-3.477-1.347-5.214-2.836-5.214-4.469c0-1.135,0.708-1.703,2.128-1.703
			c2.27,0,4.362,1.739,6.278,5.214c3.12,1.136,6.135,1.703,9.045,1.703c6.738,0,12.449-2.589,17.132-7.769
			c0.639-0.708,1.134-1.064,1.489-1.064c0.567,0,0.852,0.319,0.852,0.958c0,0.71-0.923,1.88-2.767,3.511
			c-4.825,4.187-10.394,6.278-16.706,6.278c-2.059,0-4.719-0.389-7.981-1.17c0.213,2.554,0.319,4.256,0.319,5.107
			c0,4.399-1.207,8.655-3.618,12.769c-2.483,4.257-5.64,7.698-9.47,10.322c-3.902,2.695-7.769,4.044-11.599,4.044
			c-4.257,0-7.84-1.597-10.748-4.789c-2.838-3.121-4.256-7.058-4.256-11.812c0-5.533,1.631-10.995,4.895-16.387
			c3.121-5.32,7.271-9.753,12.45-13.302c4.965-3.475,10.002-5.214,15.11-5.214c1.915,0,3.652,0.213,5.214,0.638
			c1.56,0.497,2.341,1.101,2.341,1.809c0,0.569-0.497,1.349-1.489,2.341c-0.782,0.71-1.384,1.064-1.81,1.064
			c-0.071,0-0.196-0.053-0.372-0.16c-0.178-0.106-0.409-0.195-0.691-0.266c-2.271-1.347-4.293-2.022-6.065-2.022
			c-6.031,0-11.458,2.732-16.281,8.194c-4.754,5.393-7.13,11.529-7.13,18.409c0,4.256,1.241,7.839,3.725,10.747
			c2.411,2.838,5.533,4.257,9.364,4.257c4.823,0,9.115-2.092,12.876-6.278c3.618-4.186,5.427-9.045,5.427-14.578
			C899.425,208.383,899.176,206.502,898.68,204.587z"/>
		<path style="fill:#652C10;" d="M942.946,166.492l7.662-1.277l-2.661,4.256c-3.901,6.385-7.52,12.556-10.854,18.515l-1.915,3.512
			l26.815-1.17l-1.703,2.767l-2.66-0.106c-1.562-0.07-4.825-0.106-9.79-0.106c-2.767,0-6.634,0.072-11.599,0.213l-2.021,0.106
			c-6.527,12.274-9.79,21.388-9.79,27.347c0,2.697,0.709,4.86,2.129,6.491c1.418,1.633,3.333,2.447,5.746,2.447
			c5.107,0,11.562-3.262,19.366-9.789c2.979-2.555,6.136-5.462,9.471-8.726c3.262-3.192,6.951-7.023,11.066-11.492l1.916-2.129
			c0.708-0.921,1.276-1.383,1.702-1.383c0.639,0,0.958,0.284,0.958,0.851c0,0.498-0.994,1.846-2.979,4.044
			c-19.723,22.063-34.514,33.094-44.373,33.094c-3.477,0-6.278-1.171-8.407-3.512c-2.199-2.27-3.298-5.284-3.298-9.045
			c0-3.334,0.602-6.88,1.809-10.641c1.205-3.688,3.44-8.867,6.704-15.536l0.957-1.809l-13.62,0.745l2.447-2.66l12.237,0.106
			l0.958-1.809c2.057-3.831,4.469-8.016,7.235-12.556l3.405-5.64l2.128-3.511L942.946,166.492z"/>
		<path style="fill:#652C10;" d="M969.549,210.333c-0.923,3.192-1.383,5.959-1.383,8.3c0,3.618,1.099,6.563,3.299,8.832
			c2.27,2.341,5.107,3.512,8.513,3.512s7.093-1.027,11.066-3.086c3.831-1.985,8.335-5.284,13.514-9.896
			c5.391-4.823,10.817-10.321,16.281-16.493l2.554-2.873c0.708-0.852,1.117-1.331,1.224-1.437s0.194-0.194,0.267-0.266
			c0.638-0.708,1.17-1.064,1.596-1.064c0.567,0,0.852,0.284,0.852,0.852c0,0.497-1.242,2.093-3.725,4.789
			c-10.358,11.705-19.366,20.467-27.028,26.283c-8.371,6.313-15.43,9.471-21.176,9.471c-3.974,0-7.235-1.349-9.79-4.044
			c-2.625-2.624-3.937-6.029-3.937-10.216c0-5.036,1.702-10.534,5.107-16.493c3.76-6.525,8.548-12.131,14.365-16.813
			c5.816-4.61,10.924-6.917,15.323-6.917c2.198,0,3.9,0.497,5.107,1.49c1.206,0.994,1.81,2.447,1.81,4.363
			c0,3.335-1.49,6.704-4.47,10.109c-3.051,3.477-6.847,6.314-11.386,8.513c-4.682,2.271-9.188,3.405-13.514,3.405
			C973.309,210.652,971.818,210.546,969.549,210.333z M970.507,208.099c1.063,0.284,2.411,0.426,4.043,0.426
			c3.476,0,7.13-0.922,10.961-2.768c3.9-1.915,7.058-4.22,9.471-6.916c2.482-2.908,3.724-5.64,3.724-8.194
			c0-2.908-1.596-4.363-4.788-4.363c-4.754,0-10.181,3.405-16.281,10.215C975.152,199.196,972.776,203.063,970.507,208.099z"/>
		<path style="fill:#652C10;" d="M1029.351,193.733c-0.497,2.697-0.744,5.924-0.744,9.683c0,8.656,1.099,15.288,3.299,19.898
			c2.27,4.683,5.427,7.023,9.47,7.023c7.378,0,17.415-6.561,30.114-19.686c4.752-4.752,8.654-8.974,11.705-12.663
			c0.993-1.206,1.738-1.809,2.235-1.809c0.638,0,0.957,0.356,0.957,1.064c0,0.426-1.313,2.059-3.937,4.896
			c-10.784,12.061-19.58,20.644-26.391,25.751c-6.81,5.107-12.946,7.661-18.408,7.661c-4.896,0-8.691-2.234-11.387-6.704
			c-2.696-4.397-4.043-10.71-4.043-18.94c0-13.124,3.015-27.348,9.045-42.671c7.874-20.146,15.749-34.938,23.623-44.373
			c3.618-4.326,6.88-6.491,9.79-6.491c1.347,0,2.482,0.532,3.404,1.596c0.852,1.136,1.277,2.661,1.277,4.576
			c0,7.946-6.172,21.779-18.516,41.5c-2.767,4.469-6.137,9.401-10.108,14.792c-3.405,4.612-5.18,6.988-5.321,7.129l-4.256,5.427
			L1029.351,193.733z M1029.989,189.476c2.695-2.979,5.675-6.81,8.938-11.492c2.482-3.475,5.497-7.909,9.045-13.301
			c3.334-5.32,5.853-9.505,7.556-12.557c2.128-4.043,3.794-7.412,5.001-10.109c3.831-8.3,5.746-14.222,5.746-17.771
			c0-1.205-0.284-2.198-0.852-2.979c-0.497-0.708-1.276-1.064-2.341-1.064c-2.412,0-5.711,3.086-9.896,9.258
			c-4.043,6.03-8.123,13.905-12.236,23.623c-1.064,2.697-2.626,6.953-4.683,12.769c-1.349,3.902-2.59,7.911-3.725,12.024
			C1031.549,181.426,1030.698,185.292,1029.989,189.476z"/>
		<path style="fill:#652C10;" d="M1166.939,177.558c-5.179-4.326-10.393-6.491-15.642-6.491c-6.315,0-11.671,2.447-16.068,7.342
			c-4.469,4.895-6.704,10.854-6.704,17.877c0,7.307,2.129,14.118,6.385,20.431c4.113,6.243,10.145,11.67,18.09,16.28
			c12.698,7.236,25.289,10.854,37.775,10.854c4.965,0,10.038-0.675,15.217-2.021c5.391-1.276,9.932-2.979,13.621-5.107
			c1.844-1.064,2.802-1.597,2.873-1.597c0.426-0.213,0.814-0.497,1.17-0.851c0.213-0.213,1.347-0.994,3.405-2.342
			c2.129-1.418,4.47-3.652,7.023-6.703c5.462-6.313,8.193-12.91,8.193-19.792c0-5.108-1.702-10.11-5.107-15.004
			c-3.618-5.108-9.329-10.604-17.132-16.494l-7.769-6.065c-4.043-3.192-7.768-6.419-11.173-9.684
			c-2.91-2.695-5.498-5.64-7.768-8.832c-2.129-2.908-3.618-5.674-4.47-8.3c-0.852-2.695-1.276-5.462-1.276-8.3
			c0-6.242,1.915-11.74,5.746-16.494c3.83-4.895,9.15-8.654,15.961-11.28c6.88-2.695,14.755-4.043,23.623-4.043
			c5.249,0,10.357,0.604,15.323,1.809c4.61,1.135,8.832,2.767,12.663,4.895c3.618,2.059,6.419,4.469,8.406,7.236
			c1.985,2.838,2.979,5.889,2.979,9.151c0,3.123-1.136,5.711-3.405,7.768c-2.271,2.059-5.214,3.086-8.832,3.086
			c-3.192,0-5.889-0.673-8.087-2.022c-0.852-0.425-1.277-0.886-1.277-1.383c0-0.282,0.319-0.745,0.958-1.383
			c0.069-0.07,0.142-0.123,0.213-0.16c0.069-0.035,0.142-0.088,0.213-0.159c0.069-0.07,0.142-0.142,0.213-0.213l0.532,0.425
			c2.623,1.774,5.427,2.661,8.406,2.661c2.057,0,3.759-0.639,5.107-1.916c1.277-1.206,1.915-2.802,1.915-4.789
			c0-3.688-1.809-7.271-5.427-10.748c-3.477-3.405-8.229-6.242-14.259-8.513c-5.959-2.128-11.954-3.192-17.983-3.192
			c-5.32,0-10.321,0.604-15.004,1.809c-4.541,1.136-8.513,2.803-11.918,5.001c-3.335,2.271-5.889,4.895-7.661,7.874
			c-1.846,3.123-2.767,6.528-2.767,10.215c0,4.328,1.453,8.691,4.362,13.089c2.837,4.328,7.483,9.188,13.939,14.578l17.877,14.685
			c6.172,5.108,10.677,10.109,13.515,15.004c2.908,5.038,4.362,10.287,4.362,15.749c0,8.018-2.767,15.535-8.3,22.559
			c-5.604,7.095-13.125,12.663-22.559,16.706c-9.364,4.114-19.545,6.172-30.54,6.172c-8.371,0-16.353-1.17-23.942-3.511
			c-7.379-2.271-13.939-5.534-19.686-9.79c-5.533-4.044-9.826-8.974-12.876-14.791c-3.051-5.604-4.575-11.74-4.575-18.409
			c0-5.959,1.205-11.314,3.617-16.068c2.482-4.895,5.816-8.689,10.003-11.386c4.326-2.695,9.009-4.043,14.046-4.043
			c3.688,0,7.093,0.675,10.216,2.022c3.192,1.348,4.788,2.838,4.788,4.469C1167.472,175.643,1167.294,176.353,1166.939,177.558z"/>
		<path style="fill:#652C10;" d="M1309.636,202.033l-0.425-1.277c5.32-3.121,7.98-6.704,7.98-10.748
			c0-2.624-1.029-4.646-3.086-6.065c-2.059-1.347-5.001-2.022-8.832-2.022c-5.533,0-11.564,1.739-18.09,5.214
			c-6.669,3.477-12.273,7.805-16.813,12.982c-3.265,3.689-5.818,7.343-7.662,10.961c-1.915,3.688-2.873,6.774-2.873,9.257
			c0,2.484,0.78,4.399,2.341,5.746c1.49,1.49,3.405,2.235,5.746,2.235c4.326,0,9.506-2.695,15.536-8.088
			c6.029-5.39,11.456-12.236,16.281-20.536c1.134-0.567,2.057-0.852,2.767-0.852c0.779,0,1.631,0.532,2.554,1.596
			c-5.18,8.585-7.768,15.962-7.768,22.134c0,2.128,0.531,3.796,1.596,5.001c0.992,1.276,2.376,1.915,4.15,1.915
			c3.9,0,10.108-3.724,18.621-11.173c5.888-5.249,11.208-10.463,15.962-15.642l2.554-2.979c1.915-2.129,3.086-3.193,3.512-3.193
			c0.566,0,0.852,0.319,0.852,0.958s-1.952,3.017-5.853,7.13c-5.108,5.533-10.465,10.89-16.068,16.067
			c-5.107,4.683-9.577,8.159-13.407,10.429c-3.902,2.341-7.095,3.512-9.577,3.512c-2.554,0-4.612-0.995-6.172-2.979
			c-1.633-2.058-2.447-4.611-2.447-7.662c0-1.985,0.389-5.143,1.17-9.471l-1.489,1.597c-11.564,12.202-21.213,18.303-28.944,18.303
			c-2.767,0-4.93-0.889-6.49-2.66c-1.703-1.703-2.554-4.044-2.554-7.023c0-3.192,0.994-6.739,2.979-10.642
			c1.984-4.043,4.682-7.98,8.087-11.811c3.405-3.901,7.164-7.343,11.279-10.322c5.462-4.044,11.137-7.199,17.025-9.471
			c5.959-2.341,11.243-3.512,15.855-3.512c4.682,0,8.229,0.782,10.641,2.341c2.411,1.561,3.618,3.867,3.618,6.917
			C1322.192,194.017,1318.006,198.628,1309.636,202.033z M1325.278,159.043l1.49,1.17c-2.697,3.123-4.967,5.357-6.811,6.704
			c-1.987,1.348-3.902,2.021-5.746,2.021c-1.633,0-3.405-0.46-5.32-1.383l-5.534-2.554c-1.489-0.567-2.767-0.852-3.83-0.852
			c-1.987,0-4.435,1.455-7.343,4.363l-1.596-1.277c4.61-5.32,8.548-7.98,11.812-7.98c2.057,0,4.043,0.462,5.959,1.383l3.512,1.703
			c1.984,1.135,4.007,1.702,6.065,1.702C1319.921,164.044,1322.369,162.378,1325.278,159.043z"/>
		<path style="fill:#652C10;" d="M1368.801,204.587c-0.071-0.07-0.178-0.142-0.319-0.213c-0.143-0.07-0.284-0.142-0.426-0.213
			c-0.425-0.213-0.744-0.319-0.957-0.319c-3.477-1.347-5.214-2.836-5.214-4.469c0-1.135,0.708-1.703,2.128-1.703
			c2.27,0,4.362,1.739,6.278,5.214c3.12,1.136,6.135,1.703,9.045,1.703c6.738,0,12.449-2.589,17.132-7.769
			c0.639-0.708,1.134-1.064,1.489-1.064c0.567,0,0.852,0.319,0.852,0.958c0,0.71-0.923,1.88-2.767,3.511
			c-4.825,4.187-10.394,6.278-16.706,6.278c-2.059,0-4.719-0.389-7.981-1.17c0.213,2.554,0.319,4.256,0.319,5.107
			c0,4.399-1.207,8.655-3.618,12.769c-2.483,4.257-5.64,7.698-9.47,10.322c-3.902,2.695-7.769,4.044-11.599,4.044
			c-4.257,0-7.84-1.597-10.748-4.789c-2.838-3.121-4.256-7.058-4.256-11.812c0-5.533,1.631-10.995,4.895-16.387
			c3.121-5.32,7.271-9.753,12.45-13.302c4.965-3.475,10.002-5.214,15.11-5.214c1.915,0,3.652,0.213,5.214,0.638
			c1.56,0.497,2.341,1.101,2.341,1.809c0,0.569-0.497,1.349-1.489,2.341c-0.782,0.71-1.384,1.064-1.81,1.064
			c-0.071,0-0.196-0.053-0.372-0.16c-0.178-0.106-0.409-0.195-0.691-0.266c-2.271-1.347-4.293-2.022-6.065-2.022
			c-6.031,0-11.458,2.732-16.281,8.194c-4.754,5.393-7.13,11.529-7.13,18.409c0,4.256,1.241,7.839,3.725,10.747
			c2.411,2.838,5.533,4.257,9.364,4.257c4.823,0,9.115-2.092,12.876-6.278c3.618-4.186,5.427-9.045,5.427-14.578
			C1369.546,208.383,1369.297,206.502,1368.801,204.587z"/>
		<path style="fill:#652C10;" d="M1520.01,155.851c12.556,8.372,18.834,20.324,18.834,35.86c0,10.146-2.909,19.758-8.726,28.837
			c-5.889,9.295-13.585,16.635-23.091,22.027c-9.577,5.533-19.723,8.3-30.434,8.3c-6.314,0-12.167-1.136-17.558-3.405
			c-5.32-2.199-9.507-5.32-12.557-9.364c-3.051-3.902-4.575-8.369-4.575-13.407c0-2.908,0.673-5.71,2.021-8.406
			c1.277-2.767,3.05-4.965,5.32-6.598l0.852,1.49c-3.689,3.688-5.533,7.555-5.533,11.599c0,7.307,3.192,13.407,9.577,18.302
			c6.313,4.965,14.259,7.449,23.836,7.449c11.208,0,21.139-3.157,29.795-9.471c3.688-2.767,7.039-5.836,10.056-9.204
			c3.015-3.369,5.408-6.721,7.183-10.056c4.185-7.519,6.278-15.074,6.278-22.666c0-14.967-5.924-26.992-17.771-36.073l-1.597,1.064
			c-11.776,8.159-22.665,14.046-32.668,17.664c-8.513,3.123-15.359,4.682-20.537,4.682c-2.909,0-5.145-0.248-6.704-0.745
			c-1.561,2.059-3.191,4.576-4.895,7.555l-6.065,10.216c-4.399,7.379-7.592,13.514-9.577,18.408
			c-1.915,4.683-3.051,9.33-3.405,13.94c-1.915,1.915-3.333,2.873-4.256,2.873c-0.708,0-1.064-0.462-1.064-1.384
			c0-0.497,0.497-2.021,1.49-4.575l4.149-9.79c1.703-3.972,4.186-8.866,7.449-14.685c3.262-5.815,7.412-12.732,12.45-20.75
			l1.596-2.66c-1.633-1.064-2.873-2.305-3.725-3.725c-0.781-1.205-1.17-2.695-1.17-4.469c0-4.61,2.729-9.221,8.193-13.833
			c5.32-4.469,12.237-7.944,20.75-10.428c1.844-2.482,5.001-6.313,9.471-11.493c8.938-10.072,16.138-17.627,21.602-22.665
			c4.61-4.327,9.045-7.91,13.301-10.748c4.257-2.979,8.193-5.178,11.812-6.598c3.831-1.418,7.165-2.128,10.003-2.128
			c3.9,0,6.88,0.994,8.938,2.979c2.057,2.058,3.086,4.931,3.086,8.619c0,6.172-2.944,13.585-8.832,22.24
			C1537.495,139.357,1529.728,147.763,1520.01,155.851z M1470.103,154.893l0.532-0.745c-6.527,1.916-12.061,4.825-16.6,8.726
			c-4.612,3.974-6.917,7.805-6.917,11.493c0,2.979,1.347,5.179,4.044,6.597c0.141-0.213,0.319-0.426,0.532-0.638l3.086-4.789
			c0.282-0.567,1.418-2.163,3.404-4.789l3.938-5.32c0.142-0.142,1.844-2.411,5.107-6.811L1470.103,154.893z M1511.391,159.681
			c-2.839-2.341-6.422-4.185-10.748-5.533c-4.256-1.347-9.01-2.022-14.259-2.022c-4.754,0-8.938,0.462-12.557,1.384
			c-1.633,1.915-4.149,5.107-7.555,9.577l-4.257,5.746c-1.774,2.341-4.719,6.634-8.832,12.876c1.418,0.497,3.192,0.745,5.32,0.745
			c4.326,0,9.471-0.993,15.43-2.979c5.959-1.916,12.379-4.682,19.261-8.3C1499.933,167.627,1505.998,163.796,1511.391,159.681z
			 M1477.445,149.359c4.823-0.851,9.258-1.277,13.301-1.277c9.08,0,18.196,2.2,27.348,6.598c4.47-3.475,8.974-7.768,13.515-12.876
			c9.718-11.208,14.578-20.926,14.578-29.156c0-3.333-0.888-5.922-2.66-7.768c-1.846-1.844-4.399-2.767-7.662-2.767
			c-8.371,0-18.834,5.853-31.391,17.558C1495.251,128.255,1486.24,138.151,1477.445,149.359z"/>
		<path style="fill:#652C10;" d="M1556.189,210.333c-0.923,3.192-1.383,5.959-1.383,8.3c0,3.618,1.099,6.563,3.299,8.832
			c2.27,2.341,5.107,3.512,8.513,3.512s7.093-1.027,11.066-3.086c3.831-1.985,8.335-5.284,13.514-9.896
			c5.391-4.823,10.817-10.321,16.281-16.493l2.554-2.873c0.708-0.852,1.117-1.331,1.224-1.437s0.194-0.194,0.267-0.266
			c0.638-0.708,1.17-1.064,1.596-1.064c0.567,0,0.852,0.284,0.852,0.852c0,0.497-1.242,2.093-3.725,4.789
			c-10.358,11.705-19.366,20.467-27.028,26.283c-8.371,6.313-15.43,9.471-21.176,9.471c-3.974,0-7.235-1.349-9.79-4.044
			c-2.625-2.624-3.937-6.029-3.937-10.216c0-5.036,1.702-10.534,5.107-16.493c3.76-6.525,8.548-12.131,14.365-16.813
			c5.816-4.61,10.924-6.917,15.323-6.917c2.198,0,3.9,0.497,5.107,1.49c1.206,0.994,1.81,2.447,1.81,4.363
			c0,3.335-1.49,6.704-4.47,10.109c-3.051,3.477-6.847,6.314-11.386,8.513c-4.682,2.271-9.188,3.405-13.514,3.405
			C1559.949,210.652,1558.459,210.546,1556.189,210.333z M1557.147,208.099c1.063,0.284,2.411,0.426,4.043,0.426
			c3.476,0,7.13-0.922,10.961-2.768c3.9-1.915,7.058-4.22,9.471-6.916c2.482-2.908,3.724-5.64,3.724-8.194
			c0-2.908-1.596-4.363-4.788-4.363c-4.754,0-10.181,3.405-16.281,10.215C1561.793,199.196,1559.417,203.063,1557.147,208.099z"/>
		<path style="fill:#652C10;" d="M1624.079,187.88c-5.533,8.938-9.861,16.778-12.982,23.518c-2.271,4.682-3.405,7.52-3.405,8.512
			c0,0.71,0.319,1.064,0.958,1.064c0.426,0,1.915-0.958,4.469-2.873c6.526-4.965,11.775-8.795,15.749-11.492
			c3.547-2.411,7.306-4.752,11.279-7.022c2.979-1.703,6.065-3.263,9.258-4.683c2.695-1.064,4.717-1.596,6.065-1.596
			c2.624,0,3.938,1.49,3.938,4.469c0,1.49-0.497,4.541-1.49,9.151c-1.489,7.022-2.234,11.635-2.234,13.833
			c0,1.846,0.495,3.37,1.49,4.576c0.992,1.207,2.27,1.809,3.83,1.809c5.178,0,14.047-6.348,26.603-19.047
			c2.695-2.695,5.888-6.101,9.577-10.216c0.921-1.134,1.597-1.703,2.021-1.703c0.567,0,0.852,0.319,0.852,0.958
			c0,0.569-1.101,1.952-3.299,4.15l-6.597,7.13c-7.236,7.804-13.621,13.585-19.154,17.345c-5.604,3.761-10.394,5.64-14.365,5.64
			c-2.271,0-4.115-0.815-5.533-2.448c-1.42-1.631-2.129-3.794-2.129-6.49c0-2.129,0.142-3.901,0.426-5.321
			c0.639-3.333,1.524-7.411,2.66-12.236c0.354-1.56,0.532-2.767,0.532-3.618c0-2.057-0.888-3.086-2.66-3.086
			c-2.128,0-5.995,1.774-11.599,5.32c-14.259,8.798-25.043,17.025-32.349,24.688c-2.413,2.625-4.009,3.937-4.789,3.937
			c-1.135,0-1.702-1.099-1.702-3.299c0-3.475,1.737-9.15,5.214-17.025c3.476-8.087,7.343-15.216,11.599-21.388
			C1618.083,189.513,1620.674,188.662,1624.079,187.88z"/>
		<path style="fill:#652C10;" d="M1714.953,166.492l7.662-1.277l-2.661,4.256c-3.901,6.385-7.52,12.556-10.854,18.515l-1.915,3.512
			l26.815-1.17l-1.703,2.767l-2.66-0.106c-1.562-0.07-4.825-0.106-9.79-0.106c-2.767,0-6.634,0.072-11.599,0.213l-2.021,0.106
			c-6.527,12.274-9.79,21.388-9.79,27.347c0,2.697,0.709,4.86,2.129,6.491c1.418,1.633,3.333,2.447,5.746,2.447
			c5.107,0,11.562-3.262,19.366-9.789c2.979-2.555,6.136-5.462,9.471-8.726c3.262-3.192,6.951-7.023,11.066-11.492l1.916-2.129
			c0.708-0.921,1.276-1.383,1.702-1.383c0.639,0,0.958,0.284,0.958,0.851c0,0.498-0.994,1.846-2.979,4.044
			c-19.723,22.063-34.514,33.094-44.373,33.094c-3.477,0-6.278-1.171-8.407-3.512c-2.199-2.27-3.298-5.284-3.298-9.045
			c0-3.334,0.602-6.88,1.809-10.641c1.205-3.688,3.44-8.867,6.704-15.536l0.957-1.809l-13.62,0.745l2.447-2.66l12.237,0.106
			l0.958-1.809c2.057-3.831,4.469-8.016,7.235-12.556l3.405-5.64l2.128-3.511L1714.953,166.492z"/>
		<path style="fill:#652C10;" d="M1772.415,204.587c-0.071-0.07-0.178-0.142-0.319-0.213c-0.143-0.07-0.284-0.142-0.426-0.213
			c-0.425-0.213-0.744-0.319-0.957-0.319c-3.477-1.347-5.214-2.836-5.214-4.469c0-1.135,0.708-1.703,2.128-1.703
			c2.27,0,4.362,1.739,6.278,5.214c3.12,1.136,6.135,1.703,9.045,1.703c6.738,0,12.449-2.589,17.132-7.769
			c0.639-0.708,1.134-1.064,1.489-1.064c0.567,0,0.852,0.319,0.852,0.958c0,0.71-0.923,1.88-2.767,3.511
			c-4.825,4.187-10.394,6.278-16.706,6.278c-2.059,0-4.719-0.389-7.981-1.17c0.213,2.554,0.319,4.256,0.319,5.107
			c0,4.399-1.207,8.655-3.618,12.769c-2.483,4.257-5.64,7.698-9.47,10.322c-3.902,2.695-7.769,4.044-11.599,4.044
			c-4.257,0-7.84-1.597-10.748-4.789c-2.838-3.121-4.256-7.058-4.256-11.812c0-5.533,1.631-10.995,4.895-16.387
			c3.121-5.32,7.271-9.753,12.45-13.302c4.965-3.475,10.002-5.214,15.11-5.214c1.915,0,3.652,0.213,5.214,0.638
			c1.56,0.497,2.341,1.101,2.341,1.809c0,0.569-0.497,1.349-1.489,2.341c-0.782,0.71-1.384,1.064-1.81,1.064
			c-0.071,0-0.196-0.053-0.372-0.16c-0.178-0.106-0.409-0.195-0.691-0.266c-2.271-1.347-4.293-2.022-6.065-2.022
			c-6.031,0-11.458,2.732-16.281,8.194c-4.754,5.393-7.13,11.529-7.13,18.409c0,4.256,1.241,7.839,3.725,10.747
			c2.411,2.838,5.533,4.257,9.364,4.257c4.823,0,9.115-2.092,12.876-6.278c3.618-4.186,5.427-9.045,5.427-14.578
			C1773.16,208.383,1772.911,206.502,1772.415,204.587z"/>
	</g>
</g>
<g>
	<path style="fill:#652C10;" d="M285.559,149.65c-6.137-10.849-10.142-24.238-9.393-40.983c2-44.667,17.667-64.498,36.667-64.498
		c0,0,11.837,0.492,18.502,13.163c0,0,3.999-20.667,11.666-10v64c0,0-0.25,5.084-4.417,5.084s-5.5-4.583-5.5-4.583
		s-0.334-24.999-5.584-37.582s-8.833-21.333-15.833-21s-21.833,11.665-19.083,40.332c2.586,26.961,32.405,38.519,45.2,55.813
		c23.693,0.761,46.384,2.681,67.948,5.44l-0.064-79.169c0,0-7.833,1.999-7.833-4.667c0,0,0.001-3.5,4.334-3.5h45.666
		c0,0,36.834,0.664,36.834,50.331c0,0,4.82,27.924-21.249,46.761C498.55,172,529.517,181.239,555.5,190.45V35.5h-331v119.358
		C245.372,152.16,265.746,150.475,285.559,149.65z"/>
	<path style="fill:#652C10;" d="M453.334,144.499c0-24,0-51,0-51s1.667-17.999-16-17.999v84.091
		c3.128,0.542,6.223,1.101,9.293,1.673C450.152,159.63,453.334,155.199,453.334,144.499z"/>
	<path style="fill:#652C10;" d="M193.125,159.639V35.5H154.5v132.01C167.53,164.478,180.409,161.866,193.125,159.639z"/>
	<path style="fill:#652C10;" d="M123.125,35.5H55v162.777c23.058-8.941,45.788-16.464,68.125-22.729V35.5z"/>
	<path style="fill:#652C10;" d="M154.5,187.686V334.5h38.625V179.851C179.539,182.208,166.65,184.85,154.5,187.686z"/>
	<path style="fill:#652C10;" d="M55,219.93V334.5h68.125V195.834C95.365,203.791,72.527,212.391,55,219.93z"/>
	<path style="fill:#652C10;" d="M486,227.75c0,47-21,61.25-33.75,61.25s-52,0-52,0s-3.249-0.669-3.249-4.836s4-3.834,4-3.834h4.833
		l-0.087-106.852c-20.02-2.063-39.372-3.348-58.038-3.967c4.322,12.455,5.241,23.773,5.416,33.989c0.25,14.625-4.5,68.125-40,68.125
		c0,0-15.625,1-26.375-17.5c0,0-0.375,16.75-7.25,16.75c0,0-4-0.125-4.25-4.75s0-70.25,0-70.25s0.875-5.5,5.125-5.5
		s4.625,8.125,5.5,12.75s5.5,60,28.25,60s22.25-38.75,22.25-38.75s1.375-25.5-14.5-37.875c-5.667-4.418-13.368-9.918-20.837-17.185
		c-27.272,0.692-52.815,2.77-76.538,5.807V334.5h331V201.797c-27.126-7.415-53.402-13.379-78.789-18.081
		C481.675,193.49,486,207.732,486,227.75z"/>
	<path style="fill:#652C10;" d="M453.334,262.498c0-24,0-70,0-70s0.741-8.093-4.097-13.425c-3.99-0.614-7.96-1.199-11.903-1.751
		v101.676C437.334,278.998,453.334,286.498,453.334,262.498z"/>
	<path style="fill:#652C10;" d="M555.5,190.45v11.347c29.199,7.98,59.38,17.633,90.5,29.203C646,231,612.899,210.797,555.5,190.45z"
		/>
	<path style="fill:#652C10;" d="M13,216v25c0,0,14.469-9.227,42-21.07v-21.652C41.113,203.663,27.109,209.554,13,216z"/>
	<polygon style="fill:#652C10;" points="193.125,353.75 183,353.75 183,359.125 237.375,359.125 237.375,353.5 224.5,353.5 
		224.5,352.25 224.5,334.5 193.125,334.5 	"/>
	<polygon style="fill:#652C10;" points="224.5,17.5 236.75,17.5 236.75,12.5 182.875,12.333 182.875,17.375 193.125,17.375 
		193.125,35.5 224.5,35.5 	"/>
	<polygon style="fill:#652C10;" points="154.5,17.5 166.75,17.5 166.75,12.5 112.875,12.333 112.875,17.375 123.125,17.375 
		123.125,35.5 154.5,35.5 	"/>
	<polygon style="fill:#652C10;" points="123.125,353.75 113,353.75 113,359.125 167.375,359.125 167.375,353.5 154.5,353.5 
		154.5,352.25 154.5,334.5 123.125,334.5 	"/>
</g>
</svg>
